<svg width="100%" height="100%" viewBox="0 0 512 512" version="1.1" xmlns="http://www.w3.org/2000/svg" xmlns:xlink="http://www.w3.org/1999/xlink" xml:space="preserve" xmlns:serif="http://www.serif.com/" style="fill-rule:evenodd;clip-rule:evenodd;stroke-linejoin:round;stroke-miterlimit:2;">
    <g transform="matrix(0.466357,0,0,2.89308,15.7065,-37.6478)">
        <path d="M173.141,14.396C196.716,14.396 220.516,16.224 237.187,20.076C248.94,22.792 256.174,26.445 256.174,30.286L256.174,172.714C256.174,176.555 248.94,180.208 237.187,182.924C220.516,186.776 196.716,188.604 173.141,188.604L56.859,188.604C33.284,188.604 9.484,186.776 -7.187,182.924C-18.94,180.208 -26.174,176.555 -26.174,172.714L-26.174,30.286C-26.174,26.445 -18.94,22.792 -7.187,20.076C9.484,16.224 33.284,14.396 56.859,14.396L173.141,14.396ZM68.414,29.604C68.229,29.824 68.174,30.055 68.174,30.286L68.174,172.714C68.174,172.945 68.229,173.176 68.414,173.396L161.586,173.396C161.771,173.176 161.826,172.945 161.826,172.714L161.826,30.286C161.826,30.055 161.771,29.824 161.586,29.604L68.414,29.604Z"/>
    </g>
    <g transform="matrix(0.466357,0,0,2.89308,383.707,-37.6478)">
        <path d="M173.141,14.396C196.716,14.396 220.516,16.224 237.187,20.076C248.94,22.792 256.174,26.445 256.174,30.286L256.174,172.714C256.174,176.555 248.94,180.208 237.187,182.924C220.516,186.776 196.716,188.604 173.141,188.604L56.859,188.604C33.284,188.604 9.484,186.776 -7.187,182.924C-18.94,180.208 -26.174,176.555 -26.174,172.714L-26.174,30.286C-26.174,26.445 -18.94,22.792 -7.187,20.076C9.484,16.224 33.284,14.396 56.859,14.396L173.141,14.396ZM68.414,29.604C68.229,29.824 68.174,30.055 68.174,30.286L68.174,172.714C68.174,172.945 68.229,173.176 68.414,173.396L161.586,173.396C161.771,173.176 161.826,172.945 161.826,172.714L161.826,30.286C161.826,30.055 161.771,29.824 161.586,29.604L68.414,29.604Z"/>
    </g>
    <g transform="matrix(0.466357,0,0,2.89308,199.707,-37.6478)">
        <path d="M173.141,14.396C196.716,14.396 220.516,16.224 237.187,20.076C248.94,22.792 256.174,26.445 256.174,30.286L256.174,172.714C256.174,176.555 248.94,180.208 237.187,182.924C220.516,186.776 196.716,188.604 173.141,188.604L56.859,188.604C33.284,188.604 9.484,186.776 -7.187,182.924C-18.94,180.208 -26.174,176.555 -26.174,172.714L-26.174,30.286C-26.174,26.445 -18.94,22.792 -7.187,20.076C9.484,16.224 33.284,14.396 56.859,14.396L173.141,14.396ZM68.414,29.604C68.229,29.824 68.174,30.055 68.174,30.286L68.174,172.714C68.174,172.945 68.229,173.176 68.414,173.396L161.586,173.396C161.771,173.176 161.826,172.945 161.826,172.714L161.826,30.286C161.826,30.055 161.771,29.824 161.586,29.604L68.414,29.604Z"/>
    </g>
</svg>
