<?xml version="1.0" encoding="utf-8"?>
<!-- Generator: Adobe Illustrator 17.1.0, SVG Export Plug-In . SVG Version: 6.00 Build 0)  -->
<!DOCTYPE svg PUBLIC "-//W3C//DTD SVG 1.1//EN" "http://www.w3.org/Graphics/SVG/1.1/DTD/svg11.dtd">
<svg version="1.1" id="Ebene_1" xmlns="http://www.w3.org/2000/svg" xmlns:xlink="http://www.w3.org/1999/xlink" x="0px" y="0px"
	 viewBox="0 0 1951.1 305.4" enable-background="new 0 0 1951.1 305.4" xml:space="preserve">
<g>
	<g>
		<path d="M373,305.4c-8.2,0-16.1-2.1-23.1-6.3l3.9-7.7c6.2,3.8,12.2,5.9,19.3,5.9c9.4,0,15.5-4.8,15.5-12.5
			c0-5.8-3.8-9.9-11.8-12.2l-7.5-2.2c-10.8-3.1-16.9-8.3-16.9-18.5c0-12.4,9.6-20.8,23.7-20.8c7.9,0,15.6,2.3,21.9,6.7l-4.5,7.1
			c-6.6-4.1-11.1-5.6-17-5.6c-8,0-13,4.1-13,10.8c0,5.1,2.9,8,10.6,10.3l8.4,2.5c9.6,2.8,17.4,9,17.4,20.2
			C400,293.2,391.8,305.4,373,305.4z"/>
		<path d="M464.2,304.4h-11.4l-6.1-23.9c-2.1-8-3.3-15.5-3.5-17.6c-0.3,2.2-1.7,9.9-3.4,17.1l-5.9,24.3h-11.6l-14.6-54.9h10.4
			l6.3,24.1c2.2,8.3,3.2,15.3,3.6,18.7c0.4-3.3,1.7-10.2,3.7-18.2l6.3-24.6h10.8l6.6,26.3c1.7,6.6,2.9,13.3,3.3,16.1
			c0.3-2.5,1.8-10.5,3.6-18l6.2-24.4h10.1L464.2,304.4z"/>
		<path d="M490.3,304.1v-54.6h9.9v54.6H490.3z"/>
		<path d="M547,302c-3.9,2.2-8.8,3.2-14.4,3.2c-7,0-14-1.7-20.2-4.9l3.7-7.6c5.7,3,10.9,4.5,16.9,4.5c3.6,0,6-0.5,8.2-1.8
			c2.6-1.5,4.1-3.5,4.1-6.2c0-3.9-2.8-6.4-9.7-8.2l-7.8-2c-5-1.3-8.8-3.7-11-7.1c-1.6-2.3-2.4-4.8-2.4-7.6c0-9.7,8.6-16.4,20.8-16.4
			c7.1,0,14.7,2.1,19.6,5.4l-4.5,7c-4.9-2.9-9.9-4.4-14.8-4.4c-6.3,0-10.6,2.7-10.6,7.1c0,3.4,2.4,5.3,8.6,7.1l7.5,1.9
			c4.3,1.1,8.5,3,11,5.6c2.5,2.5,3.9,6.1,3.9,9.9C556.1,293.5,552.7,299,547,302z"/>
		<path d="M599.3,302c-4,2.2-8.8,3.2-14.4,3.2c-7,0-14-1.7-20.2-4.9l3.7-7.6c5.7,3,10.9,4.5,16.9,4.5c3.6,0,6-0.5,8.2-1.8
			c2.6-1.5,4.1-3.5,4.1-6.2c0-3.9-2.8-6.4-9.7-8.2l-7.8-2c-5-1.3-8.8-3.7-11-7.1c-1.6-2.3-2.4-4.8-2.4-7.6c0-9.7,8.6-16.4,20.8-16.4
			c7.1,0,14.7,2.1,19.6,5.4l-4.5,7c-4.9-2.9-9.9-4.4-14.7-4.4c-6.3,0-10.6,2.7-10.6,7.1c0,3.4,2.4,5.3,8.6,7.1l7.5,1.9
			c4.3,1.1,8.5,3,11,5.6c2.5,2.5,3.9,6.1,3.9,9.9C608.5,293.5,605,299,599.3,302z"/>
		<path d="M681.8,304.1l-18.8-38c-3.6-7.4-7.4-15.5-8.7-19.6l-0.6,0.1c0.5,6.1,0.7,13.3,0.8,19.9l0.4,37.6h-10.1v-71.6h11.6
			l19.9,39.5c3,5.9,6.5,15.2,7.1,17.1l0.6-0.2c-0.2-2.1-1-13.4-1-21.3l-0.2-35.1h9.7v71.6H681.8z"/>
		<path d="M743,304.1l-5.2-14.2h-20.5l-5.2,14.2H702l20.4-54.7h11.3l19.9,54.7H743z M727.7,258.2c-0.3,1.5-7.5,22.4-7.9,23.9h15.7
			C734.9,280.2,728,259.6,727.7,258.2z"/>
		<path d="M796.2,257.4h-15.8v46.6h-9.7v-46.6h-15.6v-8h42.4L796.2,257.4z"/>
		<path d="M807.8,304.1v-54.6h9.9v54.6H807.8z"/>
		<path d="M839.5,298c-5.2-5.5-7.6-12.3-7.6-21.3c0-17.5,9.6-28,25.2-28c8.8,0,15.2,2.9,19.7,8.5c3.9,4.6,5.9,11,5.9,19.7
			c0,8.8-1.8,15.1-5.6,19.7c-4.6,5.7-10.4,8.4-19.4,8.4C849.5,305,844,302.8,839.5,298z M870,289.9c1.3-3.3,1.8-6.6,1.8-12.3
			c0-6.8-0.7-11.1-2.4-14.5c-2.5-4.9-6.7-6.9-12.5-6.9c-5,0-9.2,2.2-11.4,5.7c-2,3.2-2.8,7.7-2.8,14.1c0,7.3,1.2,12.7,3.4,16.4
			c2,3.4,6.1,5.3,11.6,5.3C863.9,297.7,868,295.3,870,289.9z"/>
		<path d="M939.8,304.1v-54.6h-9.3l0.3,25.6c0.1,6.4,0.8,13.4,0.9,14.6c-0.7-1.5-3.3-7.1-6.5-12.7l-15.9-27.5h-11v54.6h9.7
			l-0.4-26.2c-0.1-6.9-0.4-12.5-0.6-15.3c0.4,1,4.1,8.7,7.3,14.1l15.6,27.3H939.8z"/>
		<path d="M990.8,304.1l-5.2-14.2h-20.5l-5.2,14.2h-10.1l20.4-54.7h11.3l19.9,54.7H990.8z M975.5,258.2c-0.3,1.5-7.5,22.4-7.9,23.9
			h15.7C982.7,280.2,975.9,259.6,975.5,258.2z"/>
		<path d="M1042.1,304.1h-31.4v-54.6h9.9v46.6h23.1L1042.1,304.1z"/>
		<path d="M1092.7,305.4c-8.2,0-16.1-2.1-23.1-6.3l3.9-7.7c6.2,3.8,12.2,5.9,19.3,5.9c9.3,0,15.5-4.8,15.5-12.5
			c0-5.8-3.8-9.9-11.8-12.2l-7.5-2.2c-10.8-3.1-16.9-8.3-16.9-18.5c0-12.4,9.6-20.8,23.7-20.8c7.9,0,15.6,2.3,21.9,6.7l-4.5,7.1
			c-6.7-4.1-11.1-5.6-17-5.6c-8,0-13,4.1-13,10.8c0,5.1,2.9,8,10.6,10.3l8.4,2.5c9.6,2.8,17.5,9,17.5,20.2
			C1119.7,293.2,1111.5,305.4,1092.7,305.4z"/>
		<path d="M1155.4,304.9c-7.5,0-13.7-2.3-18.4-6.8c-5.2-5-8-12.2-8-20.7c0-6.7,1.7-12.4,4.7-17c4.7-7.5,12.8-12.1,22.1-12.1
			c5.7,0,11.7,1.7,15.4,4.4l-4.8,6.6c-3.3-2.1-6.7-3.1-10.5-3.1c-5.7,0-10.8,2.8-13.4,7.7c-1.9,3.1-2.7,7.2-2.7,13
			c0,7.7,1.1,11.6,4.4,15.3c3.1,3.5,7.2,5.3,12.2,5.3c4.3,0,7.8-1.2,11.3-3.4l4.7,6C1168.2,303.3,1162.2,304.9,1155.4,304.9z"/>
		<path d="M1182.6,304.1v-54.6h9.9v54.6H1182.6z"/>
		<path d="M1209.9,304.1v-54.6h34.3l-1.3,8h-23.2v14.1h19.3v8h-19.2v16.2h25.2v8.3H1209.9z"/>
		<path d="M1301.2,304.1v-54.6h-9.4l0.3,25.6c0.1,6.4,0.8,13.4,0.9,14.6c-0.7-1.5-3.3-7.1-6.5-12.7l-15.9-27.5h-11v54.6h9.7
			l-0.4-26.2c-0.1-6.9-0.4-12.5-0.6-15.3c0.4,1,4,8.7,7.3,14.1l15.6,27.3H1301.2z"/>
		<path d="M1340.9,304.9c-7.5,0-13.7-2.3-18.4-6.8c-5.2-5-8-12.2-8-20.7c0-6.7,1.7-12.4,4.7-17c4.7-7.5,12.8-12.1,22.1-12.1
			c5.7,0,11.7,1.7,15.4,4.4l-4.8,6.6c-3.3-2.1-6.6-3.1-10.5-3.1c-5.7,0-10.8,2.8-13.4,7.7c-1.9,3.1-2.7,7.2-2.7,13
			c0,7.7,1.1,11.6,4.4,15.3c3.1,3.5,7.2,5.3,12.2,5.3c4.3,0,7.8-1.2,11.3-3.4l4.7,6C1353.7,303.3,1347.7,304.9,1340.9,304.9z"/>
		<path d="M1367.9,304.1v-54.6h34.3l-1.3,8h-23.2v14.1h19.3v8h-19.2v16.2h25.2v8.3H1367.9z"/>
		<path d="M1473.8,240.7h-25.9v21.7h21.2v8.1h-21.2v33.6h-10.1v-71.6h37.3L1473.8,240.7z"/>
		<path d="M1486.8,298c-5.2-5.5-7.6-12.3-7.6-21.3c0-17.5,9.6-28,25.2-28c8.8,0,15.2,2.9,19.7,8.5c3.9,4.6,5.9,11,5.9,19.7
			c0,8.8-1.8,15.1-5.6,19.7c-4.6,5.7-10.4,8.4-19.4,8.4C1496.9,305,1491.4,302.8,1486.8,298z M1517.3,289.9
			c1.3-3.3,1.8-6.6,1.8-12.3c0-6.8-0.7-11.1-2.4-14.5c-2.5-4.9-6.6-6.9-12.5-6.9c-5,0-9.3,2.2-11.4,5.7c-2,3.2-2.8,7.7-2.8,14.1
			c0,7.3,1.2,12.7,3.4,16.4c2,3.4,6.1,5.3,11.6,5.3C1511.2,297.7,1515.4,295.3,1517.3,289.9z"/>
		<path d="M1581.5,299.8c-3.6,3.4-8.7,5.2-16.3,5.2c-10.5,0-16.3-3.8-19-8.6c-1.7-3.1-2.2-5.4-2.2-11.5v-35.4h9.8V283
			c0,3.9,0.2,6.9,0.8,8.3c1.5,3.5,5.4,5.6,10.7,5.6c4.2,0,7.5-1.2,9.1-3.4c1.6-2.1,2.1-4,2.1-9.3v-34.8h9.9v35.2
			C1586.4,293.4,1585.3,296.4,1581.5,299.8z"/>
		<path d="M1635,304.1l-15.6-27.3c-3.2-5.4-6.8-13.1-7.3-14.1c0.2,2.8,0.5,8.4,0.6,15.3l0.4,26.2h-9.7v-54.6h11l15.9,27.5
			c3.2,5.6,5.8,11.2,6.5,12.7c-0.1-1.2-0.8-8.2-0.9-14.6l-0.3-25.6h9.4v54.6H1635z"/>
		<path d="M1690.2,251.3c8.1,2.5,15.7,9.2,15.7,25.5c0,17.7-11,25.1-17.8,26.6c-2.4,0.6-5.7,0.7-9.8,0.7h-15.9v-54.6h12.3
			C1680.4,249.5,1685.7,249.5,1690.2,251.3z M1691.1,262.2c-3.2-3.8-6.9-5-12.5-5h-6.4v39h7.6c1.8,0,3.7-0.2,5.2-0.6
			c5.8-1.5,10.2-6.5,10.2-18.1C1695.2,270.3,1694,265.7,1691.1,262.2z"/>
		<path d="M1753.2,304.1l-5.2-14.2h-20.5l-5.2,14.2h-10.1l20.4-54.7h11.3l19.9,54.7H1753.2z M1737.9,258.2
			c-0.3,1.5-7.5,22.4-7.9,23.9h15.7C1745.1,280.2,1738.3,259.6,1737.9,258.2z"/>
		<path d="M1806.4,257.4h-15.8v46.6h-9.7v-46.6h-15.6v-8h42.4L1806.4,257.4z"/>
		<path d="M1818,304.1v-54.6h9.9v54.6H1818z"/>
		<path d="M1851.8,298c-5.2-5.5-7.6-12.3-7.6-21.3c0-17.5,9.6-28,25.2-28c8.8,0,15.2,2.9,19.7,8.5c3.9,4.6,5.9,11,5.9,19.7
			c0,8.8-1.8,15.1-5.6,19.7c-4.6,5.7-10.4,8.4-19.4,8.4C1861.9,305,1856.4,302.8,1851.8,298z M1882.3,289.9
			c1.3-3.3,1.8-6.6,1.8-12.3c0-6.8-0.7-11.1-2.4-14.5c-2.5-4.9-6.6-6.9-12.5-6.9c-5,0-9.2,2.2-11.4,5.7c-2,3.2-2.8,7.7-2.8,14.1
			c0,7.3,1.2,12.7,3.4,16.4c2,3.4,6.1,5.3,11.6,5.3C1876.2,297.7,1880.4,295.3,1882.3,289.9z"/>
		<path d="M1941,304.1l-15.6-27.3c-3.2-5.4-6.9-13.1-7.3-14.1c0.2,2.8,0.5,8.4,0.6,15.3l0.4,26.2h-9.7v-54.6h11l15.9,27.5
			c3.2,5.6,5.8,11.2,6.5,12.7c-0.1-1.2-0.8-8.2-0.9-14.6l-0.3-25.6h9.3v54.6H1941z"/>
	</g>
	
		<rect x="1.1" y="1.1" fill-rule="evenodd" clip-rule="evenodd" fill="#FFFFFF" stroke="#FFFFFF" stroke-width="2.177" width="706.7" height="176.7"/>
	<path fill-rule="evenodd" clip-rule="evenodd" d="M415.5,1.1c0.3,0.2,0.7,0.3,1,0.5l-20.9,40.8c-9.6-8.1-22-13.4-35-13.4
		c-9.8,0-22.8,5.6-22.8,16.9c0,11.8,14.4,16.4,23.7,19.3l13.5,4c28.1,8.3,50.2,22.9,50.2,55.7c0,18.4-4.8,39.2-17.7,52.7h300.3V1.1
		H415.5z"/>
	<path fill-rule="evenodd" clip-rule="evenodd" fill="#ADAEAE" d="M275.1,177.4l22.5-44.7c13.1,11.5,28.6,20.9,46.7,20.9
		c12.5,0,25.8-6.2,25.8-20.4c0-14.8-20.9-19.9-32.4-23.1c-32.9-9.4-54.6-18-54.6-57.2c0-22.1,8.5-39.9,22.5-51.8H1.1v176.6h274.5
		C275.5,177.6,275.3,177.5,275.1,177.4z"/>
	<g>
		<g>
			<path fill="#FFFFFF" stroke="#FFFFFF" stroke-width="0.3" d="M67.3,38.4v36.9h45.6v15H67.3v64.5H51V23.4h63.5v15H67.3z"/>
			<path fill="#FFFFFF" stroke="#FFFFFF" stroke-width="0.3" d="M142.2,17.2l98.5,103.3v-97H257v136.7L158.5,56.9v97.9h-16.3V17.2z"
				/>
			<path fill="#FFFFFF" stroke="#FFFFFF" stroke-width="0.3" d="M452.4,17.2l98.5,103.3v-97h16.3v136.7L468.7,56.9v97.9h-16.3V17.2z
				"/>
			<path fill="#FFFFFF" stroke="#FFFFFF" stroke-width="0.3" d="M616.7,38.4v36.9h45.6v15h-45.6v64.5h-16.3V23.4h63.5v15H616.7z"/>
		</g>
	</g>
</g>
</svg>
