<svg width="100%" height="100%" viewBox="0 0 24 24" version="1.1" xmlns="http://www.w3.org/2000/svg" xmlns:xlink="http://www.w3.org/1999/xlink" xml:space="preserve" xmlns:serif="http://www.serif.com/" style="fill-rule:evenodd;clip-rule:evenodd;stroke-linejoin:round;stroke-miterlimit:2;">
    <g>
        <g transform="matrix(1,0,0,1,0,1.5)">
            <g transform="matrix(1,0,0,1,0,-1)">
                <path d="M1,6C0.448,6 0,5.552 0,5C-0,4.448 0.448,4 1,4L23,4C23.552,4 24,4.448 24,5C24,5.552 23.552,6 23,6L1,6Z"/>
            </g>
            <g transform="matrix(1,0,0,1,0,12)">
                <path d="M1,6C0.448,6 0,5.552 0,5C-0,4.448 0.448,4 1,4L23,4C23.552,4 24,4.448 24,5C24,5.552 23.552,6 23,6L1,6Z"/>
            </g>
            <g transform="matrix(1,0,0,1,0,5.5)">
                <path d="M1,6C0.448,6 -0,5.552 0,5C0,4.448 0.448,4 1,4L23,4C23.552,4 24,4.448 24,5C24,5.552 23.552,6 23,6L1,6Z"/>
            </g>
        </g>
        <g transform="matrix(-1.41948e-16,0.772727,-1,-1.83697e-16,8,2.72727)">
            <path d="M1,6C0.286,6 -0.294,5.552 -0.294,5C-0.294,4.448 0.286,4 1,4L23,4C23.714,4 24.294,4.448 24.294,5C24.294,5.552 23.714,6 23,6L1,6Z"/>
        </g>
        <g transform="matrix(-1.41948e-16,0.772727,-1,-1.83697e-16,26,2.72727)">
            <path d="M1,6C0.286,6 -0.294,5.552 -0.294,5C-0.294,4.448 0.286,4 1,4L23,4C23.714,4 24.294,4.448 24.294,5C24.294,5.552 23.714,6 23,6L1,6Z"/>
        </g>
        <g transform="matrix(-1.41948e-16,0.772727,-1,-1.83697e-16,17,2.72727)">
            <path d="M1,6C0.286,6 -0.294,5.552 -0.294,5C-0.294,4.448 0.286,4 1,4L23,4C23.714,4 24.294,4.448 24.294,5C24.294,5.552 23.714,6 23,6L1,6Z"/>
        </g>
    </g>
</svg>
