<svg width="100%" height="100%" viewBox="0 0 24 24" version="1.1" xmlns="http://www.w3.org/2000/svg" xmlns:xlink="http://www.w3.org/1999/xlink" xml:space="preserve" xmlns:serif="http://www.serif.com/" style="fill-rule:evenodd;clip-rule:evenodd;stroke-linejoin:round;stroke-miterlimit:2;">
    <path d="M8.997,13.985C9.007,15.089 8.117,15.993 7.011,16C5.906,16.009 5.006,15.12 5,14.016C4.99,12.911 5.879,12.011 6.982,12C8.088,11.993 8.991,12.883 8.997,13.985ZM8.019,9.999C6.915,10.007 6.011,9.119 6.004,8.012C5.995,6.909 6.881,6.008 7.988,6.001C9.09,5.991 9.996,6.878 10,7.983C10.012,9.09 9.12,9.989 8.019,9.999ZM16,5.985C16.004,7.087 15.119,7.993 14.015,8C12.909,8.01 12.007,7.121 12,6.017C11.989,4.911 12.878,4.011 13.985,4.002C15.086,3.996 15.99,4.883 16,5.985ZM4,21.832C8.587,22.212 6.944,17.34 11.188,17.295L13.026,18.829C13.484,24.366 6.711,25.601 4,21.832ZM18.065,14.717C19.492,12.478 23.911,4.969 23.911,4.969C24.264,4.346 23.482,3.696 22.936,4.156C22.936,4.156 16.364,9.87 14.425,11.681C12.893,13.113 12.886,13.767 12.39,16.128L14.07,17.528C16.297,16.613 16.938,16.488 18.065,14.717ZM5.443,19.523C3.359,17.703 2.023,15.044 2,12.076C1.956,6.566 6.406,2.046 11.92,2.001C15.758,1.98 18.399,3.906 18.416,5.448L20.079,3.992C19.069,1.769 15.897,-0.053 11.903,-0C5.28,0.055 -0.052,5.466 -0,12.092C0.023,15.004 1.083,17.662 2.823,19.727C3.781,20.219 4.946,20.056 5.443,19.523ZM18.24,17.617C19.299,19.587 16.889,20.987 14.695,21.609C14.391,22.521 13.892,23.33 13.321,23.92C18.576,23.329 22.382,19.616 19.587,16.031C19.128,16.716 18.69,17.228 18.24,17.617Z" style="fill-rule:nonzero;"/>
</svg>
