<svg width="100%" height="100%" viewBox="0 0 64 64" version="1.1" xmlns="http://www.w3.org/2000/svg" xmlns:xlink="http://www.w3.org/1999/xlink" xml:space="preserve" xmlns:serif="http://www.serif.com/" style="fill-rule:evenodd;clip-rule:evenodd;stroke-linejoin:round;stroke-miterlimit:2;">
    <g transform="matrix(1,0,0,1,7,52)">
        <path d="M3.944,5.516L29.104,5.516L29.104,-0.859L20.604,-0.859L20.604,-37.324L32.249,-37.324L32.249,-28.569L39.304,-28.569L39.304,-43.699L-6.256,-43.699L-6.256,-28.569L0.799,-28.569L0.799,-37.324L12.444,-37.324L12.444,-0.859L3.944,-0.859L3.944,5.516Z" style="fill-rule:nonzero;"/>
    </g>
    <g transform="matrix(0.634258,0,0,0.634258,38.375,54.0173)">
        <path d="M3.944,5.516L29.104,5.516L29.104,-0.859L20.604,-0.859L20.604,-37.324L32.249,-37.324L32.249,-28.569L39.304,-28.569L39.304,-43.699L-6.256,-43.699L-6.256,-28.569L0.799,-28.569L0.799,-37.324L12.444,-37.324L12.444,-0.859L3.944,-0.859L3.944,5.516Z" style="fill-rule:nonzero;"/>
    </g>
</svg>
